<?xml version="1.0" ?><svg id="object" viewBox="0 0 32 32" xmlns="http://www.w3.org/2000/svg"><defs><style>.cls-1{fill:#91e085;}.cls-2{fill:#6d6daa;}.cls-3{fill:#d6b5b0;}</style></defs><title/><path class="cls-1" d="M6,6V26a4,4,0,0,1,4-4H26V3a1,1,0,0,0-1-1H10A4,4,0,0,0,6,6Z"/><path class="cls-2" d="M6,27a1,1,0,0,1-1-1V6a5,5,0,0,1,5-5H25a2,2,0,0,1,2,2V22a1,1,0,0,1-1,1H10a3,3,0,0,0-3,3A1,1,0,0,1,6,27ZM10,3A3,3,0,0,0,7,6V22a5,5,0,0,1,3-1H25V3Z"/><path class="cls-3" d="M23.39,26A4.38,4.38,0,0,1,26,22H10a4,4,0,0,0,0,8H26A4.38,4.38,0,0,1,23.39,26Z"/><path class="cls-2" d="M26,31H10a5,5,0,0,1,0-10H26a1,1,0,0,1,.4,1.93,3.35,3.35,0,0,0,0,6.14A1,1,0,0,1,27,30,1,1,0,0,1,26,31ZM10,23a3,3,0,0,0,0,6H23.31a5.35,5.35,0,0,1,0-6Z"/></svg>